<svg xmlns="http://www.w3.org/2000/svg"  viewBox="0 0 100 100" width="100px" height="100px"><path d="M 49 11 C 44.578901 11 39.467882 11.680361 35.099609 14.144531 C 30.731337 16.608702 27.165459 20.929309 26.027344 27.828125 C 26.026452 27.833425 26.025391 27.841857 26.025391 27.841797 C 26.020791 27.869047 26.015119 27.897868 26.011719 27.929688 C 26.003464 28.007353 26 28.094241 26 28.207031 C 26 28.475609 26.07256 28.888834 26.34375 29.244141 C 26.614937 29.599448 27.03412 29.844436 27.519531 29.978516 A 1.0001 1.0001 0 0 0 27.689453 30.009766 L 37.892578 30.996094 A 1.0001 1.0001 0 0 0 37.988281 31 C 38.541056 31 39.096583 30.557287 39.292969 30.189453 C 39.489355 29.821619 39.54143 29.506269 39.601562 29.195312 L 39.599609 29.195312 C 40.38235 25.175976 43.314885 23 47.800781 23 C 48.890286 23 50.522644 23.338097 51.779297 24.236328 C 53.03595 25.134559 54 26.510833 54 29 L 54 35.005859 C 47.667105 35.005336 40.834375 34.986413 35.203125 37.398438 C 28.051555 40.432595 24 46.66874 24 54.599609 C 24 59.623605 25.542915 63.762306 28.359375 66.619141 C 31.175835 69.475975 35.21909 71 40 71 C 49.807159 71 55.547794 65.722371 57.478516 63.607422 L 58.054688 64.427734 C 59.423477 66.590175 60.464632 68.115632 63.289062 70.625 A 1.0001 1.0001 0 0 0 63.564453 70.798828 C 63.856754 70.921818 64.158965 70.990903 64.46875 71 C 64.901097 71.01381 65.390144 70.932119 65.798828 70.523438 C 69.467058 67.217967 71.803365 64.848167 73.318359 63.607422 C 73.863654 63.170616 74.073599 62.36713 73.957031 61.822266 C 73.840463 61.277401 73.570518 60.902918 73.328125 60.599609 L 72.914062 60.066406 A 1.0001 1.0001 0 0 0 72.914062 60.064453 C 71.118574 57.756427 70 55.630081 70 50.800781 L 70 34.199219 C 70 27.325765 69.797425 20.998461 64.798828 16.201172 A 1.0001 1.0001 0 0 0 64.794922 16.197266 C 60.651911 12.26146 53.97876 11 49 11 z M 49 13 C 53.61924 13 59.922973 14.326284 63.417969 17.646484 C 67.801277 21.856678 68 27.366865 68 34.199219 L 68 50.800781 C 68 55.965482 69.395473 58.801041 71.333984 61.292969 L 71.755859 61.835938 A 1.0001 1.0001 0 0 0 71.765625 61.847656 C 71.874864 61.984348 71.91766 62.086968 71.949219 62.15625 C 70.274925 63.539517 68.047125 65.801388 64.507812 68.994141 C 64.500512 68.993521 64.487196 68.989581 64.478516 68.988281 C 61.897378 66.671827 61.055974 65.435563 59.716797 63.318359 A 1.0001 1.0001 0 0 0 59.689453 63.277344 L 58.388672 61.425781 A 1.0001 1.0001 0 0 0 56.763672 61.408203 C 56.763638 61.408248 51.24416 69 40 69 C 35.63891 69 32.181243 67.647259 29.783203 65.214844 C 27.385164 62.782428 26 59.218614 26 54.599609 C 26 47.328478 29.469945 42.004076 35.984375 39.240234 A 1.0001 1.0001 0 0 0 35.988281 39.238281 C 41.120227 37.038926 47.810219 37 54.199219 37 L 55 37 A 1.0001 1.0001 0 0 0 56 36 L 56 29 C 56 25.952167 54.644753 23.826894 52.941406 22.609375 C 51.238059 21.391856 49.271276 21 47.800781 21 C 42.608678 21 38.584025 23.94979 37.636719 28.814453 C 37.619889 28.901483 37.616529 28.891843 37.599609 28.957031 L 28.03125 28.033203 C 29.105058 21.732307 32.19041 18.080054 36.082031 15.884766 C 40.000759 13.674186 44.788099 13 49 13 z M 64.457031 30.994141 A 0.50005 0.50005 0 0 0 63.976562 31.509766 C 63.994459 32.360777 64 33.252326 64 34.199219 L 64 50.800781 C 64 51.06755 64.016824 51.2898 64.021484 51.509766 A 0.50009537 0.50009537 0 1 0 65.021484 51.490234 C 65.016149 51.238198 65 51.024013 65 50.800781 L 65 34.199219 C 65 33.248111 64.994702 32.351223 64.976562 31.490234 A 0.50005 0.50005 0 0 0 64.457031 30.994141 z M 54 41 C 51.4565 41 47.093972 40.971806 43.236328 42.439453 C 39.378685 43.9071 36 47.139 36 53 C 36 54.411932 36.397514 56.3293 37.617188 57.998047 C 38.836861 59.666794 40.955839 61 44 61 C 47.876883 61 51.012362 59.605667 53.039062 56.878906 C 55.065763 54.152145 56 50.235334 56 45.199219 L 56 42 A 1.0001 1.0001 0 0 0 55 41 L 54 41 z M 54 43 L 54 45.199219 C 54 49.984104 53.082143 53.467558 51.433594 55.685547 C 49.785044 57.903536 47.422117 59 44 59 C 41.507161 59 40.126545 58.044363 39.230469 56.818359 C 38.334393 55.592356 38 54.009068 38 53 C 38 47.861 40.576659 45.5929 43.947266 44.310547 C 47.317872 43.028194 51.4565 43 54 43 z M 64.912109 54.992188 A 0.50005 0.50005 0 0 0 64.421875 55.591797 C 64.634446 56.723124 64.913375 57.750154 65.257812 58.673828 A 0.50005 0.50005 0 1 0 66.195312 58.326172 C 65.873751 57.463846 65.607726 56.490876 65.404297 55.408203 A 0.50005 0.50005 0 0 0 64.912109 54.992188 z M 66.626953 59.994141 A 0.50005 0.50005 0 0 0 66.191406 60.734375 C 66.381309 61.09057 66.579644 61.434233 66.785156 61.763672 A 0.50005 0.50005 0 1 0 67.632812 61.236328 C 67.440326 60.927767 67.254316 60.60343 67.074219 60.265625 A 0.50005 0.50005 0 0 0 66.626953 59.994141 z M 80 71 C 77.435433 71 75.505058 71.498068 74.205078 72.011719 C 73.555088 72.268544 73.062305 72.527719 72.724609 72.732422 C 72.555762 72.834774 72.425849 72.923507 72.332031 72.992188 C 72.285121 73.026528 72.246871 73.055431 72.214844 73.082031 C 72.198824 73.095331 72.185179 73.10883 72.167969 73.125 C 72.159369 73.1331 72.150249 73.14166 72.136719 73.15625 C 72.129919 73.16355 72.122108 73.172127 72.111328 73.185547 C 72.100548 73.198967 72.066686 73.251453 72.066406 73.251953 A 0.50005 0.50005 0 0 0 72.5 74 L 78.5 74 C 79.725467 74 80.586078 74.09339 81.166016 74.259766 C 81.745954 74.426142 82.032158 74.638855 82.238281 74.925781 C 82.364568 75.103342 82.5 75.221662 82.5 76 C 82.5 77.133678 82.037229 79.519988 80.039062 84.306641 A 0.50005 0.50005 0 0 0 80.697266 84.958984 C 80.697664 84.958812 80.767194 84.922716 80.777344 84.916016 C 80.787494 84.909316 80.793668 84.906114 80.798828 84.902344 C 80.809158 84.894944 80.815949 84.889202 80.824219 84.882812 C 80.840759 84.870042 80.858389 84.854377 80.880859 84.835938 C 80.925799 84.799048 80.987884 84.747928 81.0625 84.681641 C 81.211732 84.54907 81.417482 84.357503 81.662109 84.105469 C 82.151364 83.6014 82.793716 82.858841 83.435547 81.892578 C 84.719212 79.960047 86 77.117833 86 73.5 C 86 72.950667 85.94482 72.552976 85.724609 72.222656 A 0.50005 0.50005 0 0 0 85.722656 72.220703 C 85.614864 72.061358 85.584657 72.06997 85.513672 72.019531 C 85.442692 71.969091 85.355541 71.915696 85.244141 71.857422 C 85.021339 71.740874 84.70477 71.609165 84.267578 71.482422 C 83.393242 71.228982 82.037417 71 80 71 z M 80 72 C 81.962583 72 83.225914 72.220393 83.988281 72.441406 C 84.369465 72.551913 84.625379 72.663626 84.779297 72.744141 C 84.838597 72.775161 84.869507 72.795473 84.898438 72.814453 C 84.920446 72.858774 85 73.072507 85 73.5 C 85 76.882167 83.807103 79.527869 82.603516 81.339844 C 82.316634 81.771737 82.08375 81.99198 81.8125 82.326172 C 82.945301 79.244638 83.5 77.100136 83.5 76 C 83.5 75.043674 83.176264 74.519633 83.052734 74.345703 A 0.50005 0.50005 0 0 0 83.050781 74.34375 C 82.705951 73.863723 82.171218 73.508202 81.441406 73.298828 C 80.711594 73.089455 79.774533 73 78.5 73 L 74.451172 73 C 74.502812 72.97864 74.518092 72.962806 74.572266 72.941406 C 75.763286 72.470803 77.564567 72 80 72 z M 10.707031 73 C 10.478259 73 10.276845 73.05985 10.115234 73.283203 C 10.115234 73.283203 10.115234 73.285156 10.115234 73.285156 C 9.9346268 73.534731 10.000859 73.790783 10.066406 73.939453 C 10.132146 74.088565 10.222795 74.20131 10.332031 74.310547 A 0.50005 0.50005 0 0 0 10.351562 74.328125 C 21.082664 83.985561 34.164378 89 48 89 C 58.578451 89 70.246247 85.262043 78.375 79.261719 C 78.62572 79.082633 78.990234 78.656437 78.990234 78.042969 C 78.990234 77.70413 78.799825 77.427066 78.578125 77.259766 C 78.356425 77.092465 78.090714 77.003906 77.804688 77.003906 C 77.426312 77.003906 77.078786 77.130066 76.71875 77.261719 C 76.358714 77.393372 76.009086 77.542756 75.798828 77.626953 C 67.425926 80.978695 57.418662 83 48 83 C 35.039089 83 22.462158 79.61604 11.132812 73.111328 A 0.50005 0.50005 0 0 0 11.101562 73.09375 C 10.976579 73.033213 10.842365 73 10.707031 73 z M 13.255859 75.267578 C 24.05203 80.933074 35.83935 84 48 84 C 57.561338 84 67.670824 81.958899 76.169922 78.556641 C 76.406664 78.461841 76.739536 78.317316 77.0625 78.199219 C 77.385464 78.081122 77.724062 78.003906 77.804688 78.003906 C 77.863658 78.003906 77.939559 78.032144 77.974609 78.058594 C 77.983893 78.065599 77.983314 78.064099 77.986328 78.066406 C 77.981953 78.340905 77.930311 78.35056 77.794922 78.447266 A 0.50005 0.50005 0 0 0 77.78125 78.457031 C 69.861996 84.302675 58.341549 88 48 88 C 35.31879 88 23.383329 83.555164 13.255859 75.267578 z"/></svg>